<?xml version="1.0" encoding="iso-8859-1"?>
<!-- Generator: Adobe Illustrator 19.0.0, SVG Export Plug-In . SVG Version: 6.00 Build 0)  -->
<svg version="1.1" id="Layer_1" xmlns="http://www.w3.org/2000/svg" xmlns:xlink="http://www.w3.org/1999/xlink" x="0px" y="0px"
	 viewBox="0 0 512 512" style="enable-background:new 0 0 512 512;" xml:space="preserve">
<g>
	<path style="fill:#57565C;" d="M98.499,330.55c-3.451-2.581-8.34-1.88-10.923,1.57c-2.582,3.449-1.88,8.341,1.57,10.923
		l223.581,167.4c1.349,1.01,2.99,1.556,4.677,1.556h0.001c7.502,0,10.682-9.553,4.676-14.049L98.499,330.55z"/>
	<path style="fill:#57565C;" d="M373.872,144.866c-1.439-4.061-5.899-6.185-9.962-4.746c-4.062,1.44-6.186,5.9-4.746,9.962
		l126.507,356.724c1.104,3.114,4.05,5.195,7.353,5.195l0,0c5.388,0,9.155-5.332,7.353-10.41L373.872,144.866z"/>
	<path style="fill:#57565C;" d="M223.238,199.215c-2.376-3.595-7.217-4.582-10.813-2.205c-3.595,2.376-4.582,7.218-2.205,10.813
		L409.047,508.5c1.445,2.185,3.889,3.499,6.509,3.499l0,0c6.218,0,9.939-6.92,6.509-12.107L223.238,199.215z"/>
</g>
<g>
	<path style="fill:#3E3D42;" d="M87.576,332.12c-2.582,3.449-1.88,8.341,1.57,10.923l66.053,49.456
		c1.618-5.936,2.119-12.197,1.386-18.458l-58.086-43.49C95.048,327.969,90.16,328.671,87.576,332.12z"/>
	<path style="fill:#3E3D42;" d="M223.238,199.215c-2.376-3.595-7.217-4.582-10.813-2.205c-3.595,2.376-4.582,7.218-2.205,10.813
		l29.803,45.07l12.527-9.348L223.238,199.215z"/>
	<path style="fill:#3E3D42;" d="M373.872,144.866c-1.439-4.061-5.899-6.185-9.962-4.746c-4.062,1.44-6.186,5.9-4.746,9.962
		l17.589,49.595c2.972,0.95,5.893,2.043,8.737,3.281c3.288,1.431,6.665,2.477,10.103,3.157L373.872,144.866z"/>
</g>
<path style="fill:#FF3F62;" d="M106.18,50.664L90.081,62.678C3.309,127.426-14.71,251.398,50.039,338.17l16.818,22.538
	c5.527,7.406,11.485,14.31,17.815,20.706c1.955,1.975,25.998-103.328,102.751-168.004c80.765-68.057,230.82-70.866,223.713-80.965
	l-29.463-41.738C316.925,3.935,192.953-14.085,106.18,50.664z"/>
<path style="fill:#FF0C38;" d="M111.576,113.321l3.452-19.788c3.877-22.226,11.408-42.941,21.849-61.654
	c-10.613,5.223-20.894,11.47-30.696,18.784L90.081,62.677C3.309,127.426-14.71,251.398,50.039,338.17l16.818,22.538
	c9.029,12.101,19.212,22.862,30.284,32.248c11.995,10.169,30.35,0.23,28.44-15.379c-4.397-35.913,7.009-72.994,32.605-100.211
	C119.973,234.002,100.931,174.349,111.576,113.321z"/>
<path style="fill:#57565C;" d="M115.228,98.366l18.006-13.435c65.326-48.746,149.501-55.545,219.639-25.188
	C284.555,0.616,181.397-5.461,106.18,50.664L90.081,62.678C14.866,118.803-8.676,219.423,28.554,301.745
	C19.421,225.867,49.902,147.111,115.228,98.366z"/>
<path style="fill:#3E3D42;" d="M136.877,31.879c-10.613,5.222-20.894,11.47-30.696,18.785L90.081,62.677
	C14.866,118.803-8.676,219.423,28.554,301.745c-9.077-75.404,20.983-153.634,85.467-202.447
	C114.023,99.298,117.13,62.725,136.877,31.879z"/>
<path style="fill:#D1E7F8;" d="M392.91,133.933c-44.143-19.213-97.186-14.979-138.334,15.724l-111.842,83.455
	c-41.147,30.704-60.306,80.347-54.455,128.133c0.868,7.089-2.002,13.133-6.616,17.049c4.93,5.207,10.097,10.1,15.478,14.661
	c11.995,10.169,30.351,0.23,28.44-15.379c-5.231-42.725,11.898-87.11,48.687-114.562l99.996-74.616
	c36.789-27.452,84.214-31.236,123.683-14.059c14.419,6.276,29.171-8.492,22.838-22.884c-2.841-6.457-6.06-12.802-9.648-19.011
	C406.068,135.753,399.459,136.784,392.91,133.933z"/>
<path style="fill:#B9D8F4;" d="M88.278,361.246c0.868,7.089-2.002,13.133-6.616,17.049c4.93,5.207,10.097,10.1,15.478,14.661
	c11.995,10.168,30.35,0.23,28.44-15.379c-4.397-35.913,7.009-72.994,32.605-100.211c-9.75-11.064-18.251-23.187-25.33-36.126
	C98.561,272.146,82.919,317.469,88.278,361.246z"/>
<g>
	<path style="fill:#2D2D30;" d="M153.198,283.146L16.79,157.021c-5.273-4.876-5.596-13.104-0.719-18.377
		c4.875-5.273,13.105-5.596,18.377-0.719l136.409,126.123c5.273,4.876,5.596,13.104,0.719,18.377
		C169.013,285.199,162.022,290.541,153.198,283.146z"/>
	<path style="fill:#2D2D30;" d="M276.227,185.424l-82.074-166.67c-3.173-6.443-0.522-14.24,5.921-17.412
		c6.446-3.175,14.241-0.522,17.412,5.921l82.074,166.67c3.173,6.443,0.522,14.24-5.921,17.412
		C291.792,192.256,282.706,195.715,276.227,185.424z"/>
</g>
<g>
</g>
<g>
</g>
<g>
</g>
<g>
</g>
<g>
</g>
<g>
</g>
<g>
</g>
<g>
</g>
<g>
</g>
<g>
</g>
<g>
</g>
<g>
</g>
<g>
</g>
<g>
</g>
<g>
</g>
</svg>
