<svg id="Capa_1" enable-background="new 0 0 512 512" height="512" viewBox="0 0 512 512" width="512" xmlns="http://www.w3.org/2000/svg"><g><path d="m487.708.217-74.377-.217-.109 40.897c17.701 12.435 29.303 32.991 29.303 56.219v71.852c0 23.192-11.539 44.107-29.795 56.623l-.349 131.353c0 43.465-35.236 78.701-78.701 78.701-43.466 0-78.701-35.236-78.701-78.701l.026-9.837h24.675v-30.017h-123.722v30.017h22.694v10.321c0 85.231 69.34 154.571 154.571 154.571 41.318 0 80.116-16.108 109.248-45.356 29.215-29.332 45.213-68.335 45.047-109.823-.499-125.487.19-356.603.19-356.603z"/><path d="m293.969 229.703 89.448-22.235c17.724-4.405 30.102-20.237 30.102-38.501v-71.851c0-21.875-17.797-39.672-39.673-39.672h-133.735z"/><path d="m218.99 90.443-46.851 153.269 46.766 34.835 47.772-35.584z"/><path d="m63.965 57.443c-21.876 0-39.673 17.797-39.673 39.672v71.852c0 18.264 12.379 34.096 30.102 38.501l90.533 22.504 52.851-172.53h-133.813z"/></g></svg>