<svg id="Solid" height="512" viewBox="0 0 512 512" width="512" xmlns="http://www.w3.org/2000/svg"><path d="m480 448.188a434.909 434.909 0 0 1 -114.872 15.867c-65.808 0-125.96-16.274-168.145-47.617-21.793-16.193-38.718-36.143-50.307-59.3-12.392-24.757-18.676-53.229-18.676-84.621 0-120.953 102.284-168.091 168.355-185.907-28.4-3.355-60.282 2.53-95.049 17.586-50.565 21.904-107.518 63.339-169.306 123.186v252.618h448z"/><path d="m316.534 74.121c33.174 8.544 62.226 29.872 84.016 61.678a197.827 197.827 0 0 1 17.483 31.342 138.352 138.352 0 0 0 7-12.581c5.952-12.21 12-29.9 7.042-44.827-4.684-14.089-18.82-24.173-42.015-29.972a8 8 0 0 1 -5.723-5.462c-.078-.257-8.79-27.889-33.394-37.92-17.93-7.309-40.295-3.843-66.479 10.3l-.14.092c-3.8 2.472-6.97 1.129-11.763-.9a166.366 166.366 0 0 0 -43.832-12.6 138.925 138.925 0 0 0 -18.722-1.287 126.578 126.578 0 0 0 -53.9 11.909c-47.118 21.923-85.507 73.091-114.355 152.294 55.283-50.741 106.757-86.587 153.317-106.726 44.831-19.392 85.696-24.552 121.465-15.34z"/><path d="m366.638 346.059c-.29-24.83-7.136-50.387-20.347-75.96-14.976-28.991-38.225-58.134-69.2-86.77l-4.776 23.881 81.016 198.858a131.57 131.57 0 0 0 13.307-60.009z"/><path d="m284.747 378.043a138.948 138.948 0 0 0 53.805 34.157l-80.952-198.712-26.325-15.795c-1.7 42.5 2.635 79.937 12.928 111.429 9.029 27.631 22.672 50.82 40.544 68.921z"/><path d="m144 272.517c0 56.15 21.037 100.251 62.525 131.077 32.429 24.1 76.721 39.036 128.088 43.21 47.116 3.826 97.252-1.432 145.387-15.22v-103.384a446.079 446.079 0 0 1 -97.427 15.4c.02.76.055 1.521.064 2.279.519 44.5-18.118 74.293-23.842 82.366l-.085.119a8 8 0 0 1 -8.443 3.454l-.144-.027c-9.945-1.8-44.871-10.2-76.762-42.5-19.178-19.424-33.853-44.028-43.667-73.134-37.311-18.135-65.437-44.775-82.419-77.885a174.506 174.506 0 0 0 -3.275 34.245z"/></svg>