<svg id="Layer_3" enable-background="new 0 0 64 64" height="512" viewBox="0 0 64 64" width="512" xmlns="http://www.w3.org/2000/svg"><path d="m7 47h40v2h-40z"/><path d="m9 58c0 1.654 1.346 3 3 3h8c1.654 0 3-1.346 3-3v-7h-14z"/><path d="m15 8h4.868c-.272-1.042-.957-1.915-1.868-2.445v-3.555h-4v3.555c-1.191.693-2 1.968-2 3.445s.809 2.752 2 3.445v4.555h-2c-1.654 0-3 1.346-3 3v5h14v-5c0-1.654-1.346-3-3-3h-2v-4.555c.911-.53 1.596-1.403 1.868-2.445h-4.868z"/><path d="m40 5.555v-3.555h-4v3.555c-.911.53-1.596 1.403-1.868 2.445h7.736c-.272-1.042-.957-1.915-1.868-2.445z"/><path d="m36 12.445v4.555h-2c-1.654 0-3 1.346-3 3v5h14v-5c0-1.654-1.346-3-3-3h-2v-4.555c.911-.53 1.596-1.403 1.868-2.445h-7.736c.272 1.042.957 1.915 1.868 2.445z"/><path d="m31 58c0 1.654 1.346 3 3 3h8c1.654 0 3-1.346 3-3v-7h-14z"/><path d="m7 27h40v2h-40z"/><path d="m31 31h15v14h-15z"/><path d="m25 31h4v14h-4z"/><path d="m9 31h14v14h-14z"/><path d="m55 53.101v-40.101c0-2.757-2.243-5-5-5h-8.132c.084.319.132.653.132 1s-.048.681-.132 1h8.132c1.654 0 3 1.346 3 3v40.101c-2.279.465-4 2.484-4 4.899 0 2.757 2.243 5 5 5s5-2.243 5-5c0-2.414-1.721-4.434-4-4.899zm-1 7.899c-1.654 0-3-1.346-3-3 0-1.302.839-2.402 2-2.816v1.816h2v-1.816c1.161.414 2 1.514 2 2.816 0 1.654-1.346 3-3 3z"/><path d="m34.132 8h-14.264c.084.319.132.653.132 1s-.048.681-.132 1h14.264c-.084-.319-.132-.653-.132-1s.048-.681.132-1z"/></svg>