<?xml version="1.0"?>
<svg xmlns="http://www.w3.org/2000/svg" xmlns:xlink="http://www.w3.org/1999/xlink" xmlns:svgjs="http://svgjs.com/svgjs" version="1.1" width="512" height="512" x="0" y="0" viewBox="0 0 128 128" style="enable-background:new 0 0 512 512" xml:space="preserve" class=""><g><path xmlns="http://www.w3.org/2000/svg" d="m123.043 5.674a1.746 1.746 0 0 0 -1.887-.89c-9.876 1.978-23.94 11.327-37.622 25.01a1.75 1.75 0 0 0 1.791 2.9c3.942-1.316 6.094-.431 7.138.377l-28.683 28.684-1.953-1.955a1.8 1.8 0 0 0 -2.475 0l-13.114 13.126a4.679 4.679 0 0 0 -4.845 4.274 4.706 4.706 0 0 0 -4.293 4.7c0 .046.012.089.014.135l-9.914 9.923a4.679 4.679 0 0 0 -4.837 4.272 4.654 4.654 0 0 0 -4.244 4.245 4.676 4.676 0 0 0 -4.271 4.845l-8.585 8.58a1.748 1.748 0 0 0 0 2.474l6.36 6.36a1.749 1.749 0 0 0 2.475 0l8.58-8.581c.049 0 .095.014.144.014a4.7 4.7 0 0 0 4.705-4.289 4.648 4.648 0 0 0 4.243-4.241 4.706 4.706 0 0 0 4.288-4.7c0-.046-.012-.089-.014-.135l9.921-9.921c.045 0 .088.013.133.013a4.7 4.7 0 0 0 4.7-4.285 4.706 4.706 0 0 0 4.289-4.7c0-.049-.013-.095-.014-.143l13.127-13.118a1.749 1.749 0 0 0 0-2.475l-1.945-1.943 55.726-55.736.756-.757a1.749 1.749 0 0 0 .306-2.063zm-92.443 87.833 8.073-8.073 3.9 3.9-8.08 8.066zm-17.74 25.518-3.885-3.885 6.425-6.425 3.885 3.885zm10.845-8.72a1.28 1.28 0 0 1 -1.767 0l-4.238-4.243a1.251 1.251 0 0 1 1.769-1.769l4.242 4.243a1.251 1.251 0 0 1 0 1.769zm4.244-4.243a1.252 1.252 0 0 1 -1.768 0l-4.243-4.244a1.249 1.249 0 0 1 0-1.767 1.281 1.281 0 0 1 1.768 0l4.243 4.242a1.252 1.252 0 0 1 0 1.769zm4.241-4.243a1.277 1.277 0 0 1 -1.766 0l-4.243-4.243a1.25 1.25 0 0 1 1.768-1.768l4.242 4.243a1.247 1.247 0 0 1 0 1.768zm14.792-14.791a1.251 1.251 0 0 1 -1.768 0l-4.242-4.242a1.247 1.247 0 0 1 0-1.768 1.277 1.277 0 0 1 1.766 0l4.243 4.243a1.25 1.25 0 0 1 .001 1.767zm4.243-4.242a1.281 1.281 0 0 1 -1.768 0l-4.243-4.243a1.25 1.25 0 0 1 1.768-1.768l4.243 4.244a1.249 1.249 0 0 1 0 1.767zm2.3-4.421-3.886-3.886 10.951-10.964 3.894 3.895zm61.471-67.832-20.049 20.045a8.412 8.412 0 0 0 -5.078-2.046c8.931-8.363 17.757-14.664 25.123-17.999z" fill="#000000" data-original="#000000" style="" class=""/></g></svg>
