<?xml version="1.0"?>
<svg xmlns="http://www.w3.org/2000/svg" viewBox="0 0 64 64" width="512" height="512"><path d="m50.825 4.825a3.582 3.582 0 0 0 -4.134-.671l-2.091 1.046a3.584 3.584 0 0 1 -3.2 0l-2.091-1.046a3.582 3.582 0 0 0 -5.171 3.5l2.709 32.511c.087 1.035 1.113 7.835 2.153 7.835v-7a4 4 0 0 1 8 0v7c1.04 0 2.066-6.8 2.153-7.834l2.709-32.511a3.581 3.581 0 0 0 -1.037-2.83z" fill="#3d7dbf"/><path d="m24.691 4.154-2.091 1.046a3.584 3.584 0 0 1 -3.2 0l-2.091-1.046a3.582 3.582 0 0 0 -5.171 3.5l2.709 32.511c.087 1.035 1.113 7.835 2.153 7.835v-7a4 4 0 0 1 8 0v7c1.04 0 2.066-6.8 2.153-7.834l2.709-32.511a3.582 3.582 0 0 0 -5.171-3.5z" fill="#3d7dbf"/><path d="m39 52v5a4 4 0 0 0 8 0v-5a5.123 5.123 0 0 0 -8 0z" fill="#616161"/><path d="m47 52v-11a4 4 0 0 0 -8 0v11a5.123 5.123 0 0 1 8 0z" fill="#bfbfbf"/><path d="m17 52v5a4 4 0 0 0 8 0v-5a5.123 5.123 0 0 0 -8 0z" fill="#616161"/><path d="m25 52v-11a4 4 0 0 0 -8 0v11a5.123 5.123 0 0 1 8 0z" fill="#bfbfbf"/><g fill="#306296"><rect height="28.16" rx="1" transform="matrix(.99430823 -.10654174 .10654174 .99430823 -2.225 4.339)" width="2" x="38.5" y="8.92"/><rect height="2" rx="1" transform="matrix(.10647232 -.99431567 .99431567 .10647232 18.68 66.787)" width="28.16" x="32.42" y="22"/><rect height="28.16" rx="1" transform="matrix(.99430823 -.10654174 .10654174 .99430823 -2.351 1.995)" width="2" x="16.5" y="8.92"/><rect height="2" rx="1" transform="matrix(.10647232 -.99431567 .99431567 .10647232 -.978 44.912)" width="28.16" x="10.42" y="22"/></g></svg>
