<svg height="512pt" viewBox="0 0 512 512" width="512pt" xmlns="http://www.w3.org/2000/svg"><g fill="#787680"><path d="m144 272h64v32h-64zm0 0"/><path d="m144 192h64v32h-64zm0 0"/><path d="m144 352h64v32h-64zm0 0"/></g><path d="m464 336h-32v-208c0-17.648438-14.351562-32-32-32h-128v-32h128c35.296875 0 64 28.703125 64 64zm0 0" fill="#ccdade"/><path d="m256 16h32v64h-32zm0 0" fill="#9da2a5"/><path d="m224 0h96v32h-96zm0 0" fill="#b0b4b9"/><path d="m272 96h101.039062c-5.710937-11.984375-13.421874-22.816406-22.816406-32h-78.222656zm0 0" fill="#b6cdd3"/><path d="m310.398438 512h-76.796876c-22.945312 0-41.601562-18.65625-41.601562-41.601562v-326.398438c0-44.113281 35.886719-80 80-80s80 35.886719 80 80v326.398438c0 22.945312-18.65625 41.601562-41.601562 41.601562zm0 0" fill="#67ce91"/><path d="m464 289.441406c-5.214844-.882812-10.542969-1.441406-16-1.441406s-10.785156.558594-16 1.441406v46.558594h32zm0 0" fill="#b6cdd3"/><path d="m512 384c0 35.347656-28.652344 64-64 64s-64-28.652344-64-64 28.652344-64 64-64 64 28.652344 64 64zm0 0" fill="#ff6853"/><path d="m192 160h160v256h-160zm0 0" fill="#77959e"/><path d="m310.398438 480h-76.796876c-22.945312 0-41.601562-18.65625-41.601562-41.601562v32c0 22.945312 18.65625 41.601562 41.601562 41.601562h76.796876c22.945312 0 41.601562-18.65625 41.601562-41.601562v-32c0 22.945312-18.65625 41.601562-41.601562 41.601562zm0 0" fill="#53b787"/><path d="m64 16h32v64h-32zm0 0" fill="#9da2a5"/><path d="m32 0h96v32h-96zm0 0" fill="#b0b4b9"/><path d="m118.398438 512h-76.796876c-22.945312 0-41.601562-18.65625-41.601562-41.601562v-326.398438c0-44.113281 35.886719-80 80-80s80 35.886719 80 80v326.398438c0 22.945312-18.65625 41.601562-41.601562 41.601562zm0 0" fill="#67ce91"/><path d="m0 160h160v256h-160zm0 0" fill="#77959e"/><path d="m118.398438 480h-76.796876c-22.945312 0-41.601562-18.65625-41.601562-41.601562v32c0 22.945312 18.65625 41.601562 41.601562 41.601562h76.796876c22.945312 0 41.601562-18.65625 41.601562-41.601562v-32c0 22.945312-18.65625 41.601562-41.601562 41.601562zm0 0" fill="#53b787"/><path d="m80 112h32v32h-32zm0 0" fill="#fff"/><path d="m288 112h32v32h-32zm0 0" fill="#fff"/><path d="m448 416c-29.742188 0-54.574219-20.464844-61.726562-48-1.34375 5.152344-2.273438 10.449219-2.273438 16 0 35.296875 28.703125 64 64 64s64-28.703125 64-64c0-5.550781-.929688-10.847656-2.273438-16-7.152343 27.535156-31.984374 48-61.726562 48zm0 0" fill="#f45747"/></svg>