<svg id="Capa_1" enable-background="new 0 0 511.965 511.965" height="512" viewBox="0 0 511.965 511.965" width="512" xmlns="http://www.w3.org/2000/svg"><g><path d="m342.053 353.458c-26.316 0-47.726-21.409-47.726-47.726v-21.46c0-5.155-2.103-10.19-5.768-13.815l-25.938-25.653 31.769-10.695 15.266 15.018c9.324 9.221 14.672 22.031 14.672 35.146v21.46c0 9.774 7.952 17.726 17.726 17.726s17.726-7.951 17.726-17.726v-221.893h30v221.893c-.002 26.316-21.411 47.725-47.727 47.725z" fill="#214070"/><path d="m458.601 83.856-30.002.007.007-32.647-170.18 170.179-21.213-21.213 170.179-170.18h-32.654l.007-30.002 83.856.007z" fill="#c2f4ff"/><path d="m458.601 83.856-30.002.007.007-32.647-170.18 170.179-10.606-10.607 210.781-210.781z" fill="#99bef3"/><path d="m210.741 415.158-21.213-21.213 34.949-34.948c15.151-15.152 15.151-39.807 0-54.959l-34.953-34.953 21.213-21.213 34.954 34.953c26.849 26.849 26.849 70.536 0 97.385z" fill="#ce0102"/><path d="m190.984 511.965c-3.814 0-7.667-.441-11.494-1.345-16.795-3.965-30.08-16.106-35.538-32.478l-31.072-93.218 77.15-58.176 42.04 124.697c2.177 6.531 7.269 11.185 13.969 12.766 6.7 1.585 13.335-.303 18.203-5.171l-38.443 38.424c-9.422 9.421-21.89 14.501-34.815 14.501z" fill="#f87600"/><path d="m294.391 234.104-69.897-69.897-156.674 156.673c-19.276 19.276-19.276 50.629 0 69.905 9.631 9.631 22.288 14.453 34.945 14.453s25.321-4.815 34.952-14.46l86.748-86.748-.714-21.927 21.927.714z" fill="#febf01"/><path d="m245.679 282.817-21.927-.714.714 21.927-86.748 86.748c-9.631 9.645-22.295 14.46-34.952 14.46s-25.315-4.822-34.945-14.453l191.626-191.626 34.945 34.945z" fill="#fe9100"/><path d="m178.261 192.472h30v118.28h-30z" fill="#455da0" transform="matrix(.707 -.707 .707 .707 -121.312 210.352)"/><path d="m202.603 251.24h30v49.43h-30z" fill="#214070" transform="matrix(.707 -.707 .707 .707 -131.395 234.694)"/></g></svg>